# xmcd
#
# Track frame offsets: 
#        150
#        15131
#        37535
#        52729
#        78163
#        93076
#        108257
#        124606
#        139446
#        155763
#        174471
#        194495
#        216487
#        232129
#        252618
#        268817
#        286198
#        307694
#
# Disc length: 4403 seconds
#
# Revision: 4
# Processed by: cddbd v1.5.2PL0 Copyright (c) Steve Scherf et al.
# Submitted via: ExactAudioCopy v1.3
#
DISCID=ec113112
DTITLE=Andrzej Zaucha - C'est la vie
DYEAR=1900
DGENRE=Chanson
TTITLE0=Badz moim natchnieniem
TTITLE1=Dzien dobry, Mr Blues
TTITLE2=Mysmy byli sobie pisani
TTITLE3=Jak na lotni
TTITLE4=Baw sie lalkami
TTITLE5=Nasz bal
TTITLE6=W zasadzie
TTITLE7=Juz taki jestem zimny dran
TTITLE8=Budzi sie lek
TTITLE9=Siodmy rok
TTITLE10=Coroni pod poduszke
TTITLE11=Gdzie ta muzyczka
TTITLE12=Ksiezniczka
TTITLE13=Bylas serca biciem
TTITLE14=Wilczy bilet
TTITLE15=Jestes i bedziesz wspomnieniem
TTITLE16=Poza mna tamten czas
TTITLE17=C'set la vie - Paryz z pocztowki
EXTD=
EXTT0=
EXTT1=
EXTT2=
EXTT3=
EXTT4=
EXTT5=Enough Is Enogh
EXTT6=
EXTT7=
EXTT8=
EXTT9=
EXTT10=
EXTT11=
EXTT12=
EXTT13=
EXTT14=
EXTT15=
EXTT16=
EXTT17=
PLAYORDER=
